<?xml version="1.0" encoding="UTF-8"?><svg id="a" xmlns="http://www.w3.org/2000/svg" viewBox="0 0 1200 848"><defs><style>.b{letter-spacing:0em;}.c{fill:#df242b;}.d{font-family:Arial-BoldMT, Arial;font-size:86.89px;}.d,.e{fill:#021c3f;}.f{letter-spacing:-.07em;}</style></defs><path class="e" d="M326.56,240.05c24.83,.32,50.97,11.77,75.59,27.33,8.93,5.65,17.57,11.9,25.72,18.63,46.74,38.57,99.52,68.02,150.46,100.24,23.53,14.88,47.33,29.33,70.95,44.08,1.71,1.07,5.32,1.39,4.22,4.34-.91,2.44-4.27,1.65-6.26,1.35-15.47-2.36-31-4.51-46.3-7.72-84.88-17.81-169.63-36.24-254.73-52.94-45.12-8.85-89.41-3.83-133.38,7.19-56.84,14.25-108.47,40.08-157.72,71.2-10.31,6.51-20.74,12.84-31.18,19.16-1.45,.88-2.99,2.69-4.95,1.21-2.16-1.63-.11-3.38,.28-4.97,1-4.09,3.32-7.51,5.83-10.86,37.04-49.31,81.35-91.53,127.97-131.52,27.83-23.87,56.19-47.03,89-63.95,24.95-12.87,50.83-22.67,84.51-22.78Z"/><path class="c" d="M482.37,294.92c6.35,.58,12.01,3.02,17.78,4.85,35.87,11.37,72.28,20.11,110,22.19,23.38,1.29,46.48-.74,68.99-7.53,16.28-4.91,29.63-14.49,41.24-26.73,16.17-17.05,32.42-34.03,50.29-49.36,24.62-21.13,51.91-24.54,80.58-8.98,51.25,27.82,99.62,60.3,147.95,92.79,51.8,34.83,102.7,70.94,153.04,107.83,1.8,1.32,5.95,2.35,4.43,4.95-1.52,2.59-4.54-.43-6.57-1.39-57.78-27.35-115.53-54.76-173.23-82.29-40.48-19.31-80.94-38.55-124.55-50.15-22.8-6.07-43.9-3.84-62.61,11.2-15.25,12.25-18.78,29.3-18.21,47.79,.25,8.06-.05,16.14,.4,24.18,1.45,25.55-18.39,44.17-44.94,46.17-19.58,1.48-37.94-2.89-55.69-10.67-43.45-19.06-83.08-44.59-121.45-72.17-21.13-15.19-41.74-31.11-62.53-46.76-1.93-1.45-4.47-2.53-4.93-5.91Z"/><path class="e" d="M620.66,292.57c-29.88-1.22-53.02-11.21-69.49-34.54-7.12-10.08-9.87-21.65-12.2-33.38-1.13-5.68,2.8-7.73,7.55-8.57,26.04-4.63,52.07-9.27,78.12-13.8,22.65-3.94,45.36-7.55,67.97-11.7,5.97-1.1,8.72,.96,9.83,6.42,10.62,52.49-30.83,99.63-81.78,95.59Z"/><path class="c" d="M616.18,114.23c36.45,1.51,64.31,19.27,81.15,54.15,1.91,3.96,.44,4.38-2.91,5.19-21.51,5.18-43.43,8.11-65.19,11.89-37.64,6.54-75.31,12.95-112.96,19.48-6.68,1.16-9.94-1.52-9.79-8.48,.15-7.18,3.85-12.1,11.01-13.92,5.34-1.36,10.76-2.72,16.22-3.23,6.36-.59,9.81-3.79,12.21-9.45,6.53-15.4,15.04-29.54,27.73-40.8,11.56-10.26,25.08-15.1,42.53-14.83Z"/><text class="d" transform="translate(90.48 544.32) scale(1.02 1)"><tspan x="0" y="0">GRUPO CORPOR</tspan><tspan class="f" x="724.16" y="0">A</tspan><tspan class="b" x="780.46" y="0">TIVO</tspan></text><g><path class="e" d="M260.12,668.96v34.46h0v41.05c-3.51,1.6-11.54,2.75-21.46,2.75-35.9,0-61.18-23.62-61.18-63.96,0-42.49,27.8-63.19,64.36-63.19,21.33,0,34.37,3.62,45.13,8.29l9.17-35.39c-9.6-4.59-28.87-9.38-53.92-9.38-63.52,0-110.53,36.96-110.76,101.94-.11,28.7,9.63,54.13,27.43,71.11,17.85,17.27,43.4,26.21,78.85,26.21,25.57,0,51.17-6.25,64.76-10.98v-102.91h-42.38Z"/><path class="e" d="M475.89,708.54c0,51.84-36.46,75.54-74.23,75.54-40.97,0-72.73-27.28-72.73-73.09s29.99-75.15,75.25-75.15,71.7,29.87,71.7,72.7Zm-101.83,1.45c0,24.21,10.16,42.58,28.82,42.58,17.07,0,27.88-17.22,27.88-42.81,0-20.92-8-42.42-27.84-42.42-20.88,0-28.85,21.62-28.85,42.65Z"/><path class="e" d="M503.01,575.12h43.85v205.78h-43.85v-205.78Z"/><path class="e" d="M718.54,575.12v163.4c0,16.1,.55,32.88,1.15,42.37h-38.93l-1.84-20.77h-.61c-8.87,15.91-25.92,23.96-44.09,23.96-33.23,0-60.12-28.75-60.12-72.84-.22-47.63,29.49-75.4,63.02-75.4,17.4,0,30.74,6.23,37.04,16.03h.58v-76.76h43.8Zm-43.8,124.13c0-2.47-.09-5.47-.57-7.99-2.49-11.84-12.04-21.56-25.39-21.56-20.07,0-30.23,17.92-30.23,40.27,0,23.87,11.68,38.95,29.92,38.95,12.45,0,22.67-8.69,25.34-21.13,.72-3.04,.93-6.45,.93-9.98v-18.57Z"/><path class="e" d="M787.39,724.14c1.31,18.3,19.26,27,39.7,27,14.81,0,26.94-2,38.76-6.01l5.91,29.84c-14.57,5.98-32.15,8.97-51.03,8.97-47.71,0-75.11-27.98-75.11-72.19,0-36.05,22.32-75.9,70.99-75.9,45.65,0,62.89,35.74,62.89,70.83,0,7.68-.79,14.2-1.57,17.46h-90.54Zm51.41-30.21c.08-10.62-4.63-28.75-24.56-28.75-18.5,0-25.99,17.02-27.21,28.75h51.77Z"/><path class="e" d="M905.59,684.35c0-17.67-.55-32.6-1.15-45.31h37.98l2.03,19.66h.92c5.68-9.14,20.01-22.85,43.53-22.85,28.77,0,50.41,19.32,50.41,61.08v83.97h-43.85v-78.62c0-18.27-6.48-30.79-22.27-30.79-12.05,0-19.18,8.5-22.21,16.65-1.12,2.76-1.53,6.96-1.53,10.9v81.85h-43.85v-96.55Z"/></g></svg>